<svg width="60" height="51" viewBox="0 0 60 51" fill="none" xmlns="http://www.w3.org/2000/svg">
<g clip-path="url(#clip0_4_377)">
<path d="M60 21.6494L50.8218 24.981C39.7319 29.0066 32.0138 39.0696 31.047 50.7637V50.7637C38.1474 48.3562 44.5581 44.263 49.7298 38.8349C54.3769 33.9325 57.8838 28.0643 60 21.6494Z" fill="#fff"/>
<path d="M0.000610352 21.6494L9.17882 24.981C20.2687 29.0066 27.9869 39.0696 28.9536 50.7637V50.7637C21.8533 48.3562 15.4425 44.263 10.2708 38.8349C5.62369 33.9325 2.11677 28.0643 0.000610352 21.6494Z" fill="#fff"/>
<path d="M36.4788 8.56651L60 0V7.65547L31.4523 18.046V18.046C30.0666 14.2386 32.3404 9.9504 36.4788 8.56651Z" fill="#fff"/>
<path d="M36.4788 19.3905L60 10.824V18.4795L31.4523 28.87V28.87C30.0666 25.0626 32.3404 20.7744 36.4788 19.3905Z" fill="#fff"/>
<path d="M23.5211 8.57737L0 0.0108643V7.66634L28.5476 18.0568C29.9334 14.2495 27.6596 9.96127 23.5211 8.57737Z" fill="#fff"/>
<path d="M23.5211 19.3905L0 10.824V18.4795L28.5476 28.87V28.87C29.9334 25.0626 27.6596 20.7744 23.5211 19.3905Z" fill="#fff"/>
</g>
<defs>
<clipPath id="clip0_4_377">
<rect width="60" height="50.7637" fill="white"/>
</clipPath>
</defs>
</svg>
